<?xml version="1.0" encoding="utf-8"?>
<!-- Generator: Adobe Illustrator 27.5.0, SVG Export Plug-In . SVG Version: 6.00 Build 0)  -->
<svg version="1.1" id="Layer_1" xmlns="http://www.w3.org/2000/svg" xmlns:xlink="http://www.w3.org/1999/xlink" x="0px" y="0px"
	 viewBox="0 0 381.433 513.037" style="enable-background:new 0 0 381.433 513.037;" xml:space="preserve">
<g>
	<g>
		<g>
			<g>
				<path style="fill:#B0622C;" d="M221.277,299.516c0,0,0.029,42.853,5.755,55.436c5.037,11.07,32.439,23.897,32.439,23.897
					s25.923-22.505,13.092-45.725C259.731,309.903,245.306,298.699,221.277,299.516z"/>
				<path style="fill:#8853A1;" d="M259.55,379.421l-0.285-0.134c-1.125-0.527-27.621-13.031-32.675-24.136
					c-5.704-12.534-5.797-53.882-5.798-55.636v-0.469l0.469-0.016c22.981-0.781,38.004,9.026,51.726,33.858
					c12.871,23.294-12.937,46.098-13.198,46.326L259.55,379.421z M221.764,299.986c0.028,4.706,0.412,43.125,5.709,54.764
					c4.631,10.177,28.969,22.107,31.913,23.521c2.546-2.334,24.592-23.486,12.752-44.914
					C258.715,309.066,244.072,299.373,221.764,299.986z"/>
			</g>
			<g>
				<path style="fill:#B0622C;" d="M159.771,299.557c0,0,0.028,42.853-5.681,55.443c-5.023,11.076-32.408,23.94-32.408,23.94
					s-25.953-22.471-13.153-45.708C121.33,309.995,135.74,298.772,159.771,299.557z"/>
				<path style="fill:#8853A1;" d="M121.603,379.513l-0.238-0.207c-0.262-0.227-26.102-22.997-13.26-46.308
					c13.689-24.85,28.649-34.677,51.682-33.927l0.469,0.015v0.469c0.001,1.754-0.037,43.102-5.724,55.644
					c-5.038,11.111-31.518,23.651-32.643,24.179L121.603,379.513z M157.401,300.002c-21.277,0-35.436,9.845-48.447,33.464
					c-11.812,21.444,10.263,42.566,12.812,44.896c2.943-1.418,27.265-13.382,31.883-23.564c5.281-11.646,5.615-50.066,5.636-54.772
					C158.65,300.011,158.022,300.002,157.401,300.002z"/>
			</g>
			<path style="fill:#EFB291;" d="M273.596,370.023c0.279-0.455,0.555-0.913,0.828-1.373c-10.626-5.472-32.454-17.158-42.814-25.925
				c-5.523-17.785-3.228-76.73-3.228-76.73l-7.274-0.092c0.026-0.536,0.043-0.829,0.043-0.829l-32.661,0.415l-32.661-0.415
				c0,0,0.017,0.293,0.043,0.829l-7.275,0.092c0,0,2.295,58.945-3.228,76.73c-10.36,8.767-32.188,20.453-42.814,25.925
				c0.273,0.46,0.549,0.918,0.828,1.373c0.019,0.031,0.039,0.061,0.058,0.092c-0.31,0.149-0.607,0.295-0.886,0.437
				c0.689,1.781,1.417,3.55,2.284,5.252c0.975,1.916,2.21,3.725,3.452,5.475c5.255,7.402,11.875,13.79,18.888,19.512
				c3.511,2.864,7.221,5.455,11.084,7.785c5.899,3.998,12.279,7.291,18.976,9.728c7.477,2.72,15.34,4.381,23.288,4.814
				c2.642,0.144,5.302,0.165,7.963,0.078c2.661,0.086,5.32,0.065,7.963-0.078c7.947-0.433,15.811-2.094,23.288-4.814
				c6.697-2.436,13.077-5.73,18.976-9.727c3.862-2.33,7.573-4.921,11.084-7.786c7.014-5.722,13.633-12.11,18.888-19.512
				c1.242-1.75,2.477-3.56,3.452-5.475c0.867-1.703,1.595-3.472,2.284-5.252c-0.279-0.141-0.576-0.287-0.886-0.437
				C273.557,370.084,273.577,370.054,273.596,370.023z"/>
			<path style="opacity:0.64;fill:#EFB291;" d="M148.906,307.435c5.114,4.39,10.182,8.856,15.787,12.615
				c6.515,4.37,13.828,7.675,21.747,8.175c3.916,0.247,7.931-0.207,11.784-0.892c4.036-0.717,8.005-1.801,11.87-3.164
				c6.384-2.253,12.498-5.267,18.241-8.856c-0.984-22.823,0.047-49.318,0.047-49.318l-7.274-0.092
				c0.026-0.536,0.043-0.829,0.043-0.829l-32.661,0.415l-32.661-0.415c0,0,0.017,0.293,0.043,0.829l-7.275,0.092
				C148.596,265.995,149.407,286.811,148.906,307.435z"/>
			<path style="opacity:0.64;fill:#EFB291;" d="M273.596,370.023c0.279-0.455,0.555-0.913,0.828-1.373
				c-8.902-4.584-25.66-13.528-36.957-21.464c0.092,5.599-0.012,11.199-0.704,16.761c-0.529,4.257-1.4,8.471-2.727,12.553
				c-1.168,3.592-2.576,7.236-4.727,10.363c-3.202,4.654-7.778,8.183-12.781,10.723c-5.421,2.752-11.351,4.44-17.338,5.405
				c-6.097,0.983-12.317,1.244-18.476,0.808c-5.579-0.395-11.172-1.337-16.459-3.198c-6.108-2.15-11.843-5.492-16.192-10.348
				c-3.844-4.292-6.409-9.537-7.92-15.071c-1.597-5.849-2.101-11.956-2.143-18.001c-0.021-3.043,0.081-6.084,0.251-9.122
				c-11.252,7.71-27.12,16.173-35.696,20.589c0.273,0.46,0.549,0.918,0.828,1.373c0.019,0.031,0.039,0.061,0.058,0.092
				c-0.31,0.149-0.607,0.295-0.886,0.437c0.689,1.781,1.417,3.55,2.284,5.252c0.975,1.916,2.21,3.725,3.452,5.475
				c5.255,7.402,11.875,13.79,18.888,19.512c3.511,2.864,7.221,5.455,11.084,7.785c5.899,3.998,12.279,7.291,18.976,9.728
				c7.477,2.72,15.34,4.381,23.288,4.814c2.642,0.144,5.302,0.165,7.963,0.078c2.661,0.086,5.32,0.065,7.963-0.078
				c7.947-0.433,15.811-2.094,23.288-4.814c6.697-2.436,13.077-5.73,18.976-9.727c3.862-2.33,7.573-4.921,11.084-7.786
				c7.014-5.722,13.633-12.11,18.888-19.512c1.242-1.75,2.477-3.56,3.452-5.475c0.867-1.703,1.595-3.472,2.284-5.252
				c-0.279-0.141-0.576-0.287-0.886-0.437C273.557,370.084,273.577,370.054,273.596,370.023z"/>
			<path style="fill:#57889F;" d="M374.658,505.342c-4.469-20.485-20.929-93.728-30.563-106.785
				c-11.224-15.211-71.167-40.952-103.613-49.742c0,0,14.478,58.612-49.885,60.257c-69.4,1.248-54.293-59.949-54.293-59.949
				c-32.434,8.833-88.015,34.412-99.219,49.639c-9.578,13.017-25.849,85.75-30.368,106.581H374.658z"/>
			<path style="fill:#57889F;" d="M374.658,505.342c-4.469-20.485-20.929-93.728-30.563-106.785
				c-9.31-12.618-52.144-32.481-84.998-43.904c0.267,10.674-4.438,21.156-9.612,30.233c-2.73,4.79-5.78,9.393-8.999,13.866
				c-3.382,4.7-6.869,9.301-9.994,14.183c-6.341,9.907-11.533,20.509-15.368,31.632c-3.957,11.474-6.636,23.443-7.99,35.503
				c-0.934,8.322-1.285,16.881-0.398,25.27H374.658z"/>
			<path style="fill:#57889F;" d="M170.015,505.342c0.066-0.455,0.136-0.91,0.2-1.364c0.487-3.461,0.944-6.951,1.081-10.447
				c0.137-3.493,0.181-6.996,0.162-10.491c-0.07-13.076-1.615-26.109-5.515-38.62c-3.577-11.476-8.939-22.316-15.393-32.438
				c-6.972-10.934-15.044-21.103-21.478-32.389c-2.97-5.209-5.029-10.846-6.16-16.734c-0.585-3.043-0.936-6.119-1.143-9.206
				c-32.361,11.15-75.022,31.978-84.684,45.108c-9.578,13.017-25.849,85.75-30.368,106.581H170.015z"/>
			<g>
				<path style="fill:#FAA544;" d="M167.101,505.342c0.741-12.292,2.137-56.921-14.702-78.883
					c-19.641-25.619-48.641-61.455-45.372-69.762l-0.73,0.907c0,0-56.456,20.863-70.06,40.096
					C24.179,414.747,9.013,488.741,5.722,505.342H167.101z"/>
				<path style="fill:#FAA544;" d="M87.064,376.742c1.488,2.336,3.095,4.591,4.705,6.844c1.639,2.294,3.241,4.615,4.927,6.875
					c3.706,4.965,7.742,9.694,12.258,13.944c4.451,4.187,9.362,7.884,14.24,11.553c9.534,7.172,19.346,14.144,27.561,22.864
					c4.003,4.249,7.62,8.89,10.536,13.955c1.288,2.237,2.434,4.551,3.455,6.92c-2.141-12.199-5.933-24.212-12.5-32.777
					c-19.641-25.619-48.641-61.455-45.372-69.762l-0.73,0.907c0,0-10.566,3.906-23.656,9.893
					C83.635,371.063,85.322,374.007,87.064,376.742z"/>
				<path style="fill:#D8903C;" d="M61.198,505.342c-0.014-0.405-0.03-0.811-0.043-1.216c-0.095-2.829-0.16-5.659-0.219-8.489
					c-0.114-5.518-0.372-11.046-0.162-16.563c0.202-5.317,0.634-10.622,0.821-15.94c0.16-4.541,0.157-9.116-0.378-13.634
					c-0.649,4.593-1.417,9.169-2.131,13.752c-1.484,9.526-2.507,19.139-2.598,28.787c-0.042,4.438,0.089,8.872,0.287,13.304H61.198z
					"/>
				<path style="fill:#FAA544;" d="M154.743,427.926c-2.332-5.533-4.974-10.906-8.139-16.013c-2.926-4.72-6.03-9.325-9.181-13.897
					c-4.608-6.686-9.371-13.348-13.392-20.422c-0.562-0.988-1.103-1.988-1.633-2.994c-0.38-1.386-0.807-2.747-1.285-4.101
					c-0.518-1.466-0.888-2.942-1.153-4.473c-0.553-3.19-0.659-6.424-0.632-9.655c0.027-3.125,0.23-6.256,0.741-9.341
					c0.496-2.998,1.373-5.874,2.427-8.718c1.872-5.048,4.102-9.96,6.813-14.614c2.672-4.588,5.827-8.887,9.518-12.708
					c1.902-1.97,3.954-3.784,6.097-5.488c1.377-1.095,2.812-2.133,4.32-3.046c-0.026-1.095-0.037-2.191,0.014-3.283
					c-0.98,0.117-1.957,0.254-2.927,0.435c-2.738,0.51-5.427,1.283-8.05,2.216c-5.204,1.851-10.16,4.427-14.731,7.523
					c-4.378,2.965-8.5,6.451-12.032,10.392c-3.476,3.879-6.427,8.34-7.989,13.344c-0.223,0.714-0.416,1.434-0.592,2.158
					c-1.404,2.004-2.854,3.971-4.548,5.746c-3.748,3.927-8.55,6.77-11.867,11.12c-6.037,7.916-1.183,18.134,3.699,25.261
					c2.818,4.114,6.086,7.923,9.454,11.591c3.974,4.327,8.193,8.431,12.615,12.298c4.426,3.871,9.116,7.359,13.801,10.902
					c4.779,3.614,9.415,7.428,13.847,11.462c0.052,0.047,0.102,0.096,0.154,0.143c2.497,1.92,4.951,3.896,7.363,5.921
					c4.324,3.631,8.587,7.34,12.491,11.425C158.336,436.669,156.574,432.272,154.743,427.926z"/>
				<path style="fill:#FAA544;" d="M99.333,342.173c0.179-0.072,0.389,0.079,0.436,0.248c1.118,4.008,2.292,8,3.58,11.957
					c2.189,6.726,4.714,13.35,7.808,19.715c0.473,0.972,0.963,1.936,1.462,2.894c-0.549-1.149-1.083-2.305-1.587-3.476
					c-2.624-6.098-4.619-12.515-5.322-19.136c-0.641-6.032-0.211-12.326,2.024-18.009c2.061-5.241,5.364-10.022,9.447-13.893
					c4.017-3.808,8.947-6.849,14.42-7.959c0.342-0.069,0.599,0.327,0.345,0.593c-0.389,0.408-0.768,0.825-1.134,1.254
					c-3.076,3.598-5.302,7.878-6.967,12.288c-1.663,4.405-2.8,9.001-3.589,13.639c-0.445,2.613-0.774,5.223-0.801,7.877
					c-0.007,0.678,0.004,1.356,0.03,2.034c0.117-1.731,0.302-3.457,0.586-5.169c0.496-2.998,1.373-5.874,2.427-8.718
					c1.872-5.048,4.102-9.96,6.813-14.614c2.672-4.588,5.827-8.887,9.518-12.708c1.902-1.97,3.954-3.784,6.097-5.488
					c1.377-1.095,2.812-2.133,4.32-3.046c-0.026-1.095-0.037-2.191,0.014-3.283c-0.98,0.117-1.957,0.254-2.927,0.435
					c-2.738,0.51-5.427,1.283-8.05,2.216c-5.204,1.851-10.16,4.427-14.731,7.523c-4.378,2.965-8.5,6.451-12.032,10.392
					c-3.476,3.879-6.427,8.34-7.989,13.344c-0.223,0.714-0.416,1.434-0.592,2.158c-1.404,2.004-2.854,3.971-4.548,5.746
					c-1.305,1.367-2.738,2.603-4.192,3.817C95.83,343.78,97.548,342.891,99.333,342.173z"/>
			</g>
			<g>
				<path style="fill:#FAA544;" d="M375.711,505.342c-3.4-17.005-18.586-90.427-30.616-107.386
					c-13.63-19.215-70.113-40.003-70.113-40.003l-0.732-0.906c3.279,8.302-25.672,44.177-45.279,69.822
					c-16.62,21.738-15.385,65.609-14.623,78.474H375.711z"/>
				<path style="fill:#FAA544;" d="M215.781,464.322c0.569-1.323,1.161-2.635,1.782-3.934c2.511-5.251,5.54-10.088,9.393-14.464
					c7.757-8.809,17.532-15.493,26.73-22.668c9.701-7.568,18.686-16.098,26.622-25.506c7.602-9.011,14.165-18.886,19.329-29.485
					c-13.549-6.224-24.654-10.312-24.654-10.312l-0.732-0.906c3.279,8.302-25.672,44.177-45.279,69.822
					C221.581,436.534,217.722,450.576,215.781,464.322z"/>
				<path style="fill:#D8903C;" d="M320.512,478.9c0.217,5.517-0.033,11.045-0.14,16.564c-0.055,2.83-0.116,5.66-0.208,8.49
					c-0.015,0.462-0.033,0.926-0.048,1.388h4.421c0.197-4.491,0.325-8.985,0.277-13.483c-0.104-9.647-1.14-19.26-2.637-28.783
					c-0.72-4.582-1.494-9.157-2.149-13.749c-0.528,4.519-0.526,9.094-0.36,13.635C319.864,468.279,320.302,473.584,320.512,478.9z"
					/>
				<path style="fill:#FAA544;" d="M294.596,351.969c-3.323-4.345-8.129-7.182-11.882-11.104c-1.697-1.773-3.149-3.738-4.555-5.741
					c-0.178-0.724-0.372-1.444-0.595-2.157c-1.569-5.002-4.526-9.459-8.007-13.333c-3.537-3.936-7.664-7.417-12.046-10.376
					c-4.575-3.09-9.535-5.659-14.741-7.503c-2.624-0.93-5.314-1.698-8.053-2.205c-1.323-0.245-2.655-0.429-3.994-0.561
					c-0.934-0.092-1.87-0.111-2.806-0.124c-0.011,0.528-0.03,1.055-0.053,1.583c0.349,0.13,0.694,0.269,1.035,0.419
					c2.624,1.15,4.995,2.803,7.232,4.576c2.145,1.701,4.199,3.513,6.104,5.48c3.696,3.817,6.857,8.111,9.535,12.695
					c2.717,4.651,4.954,9.56,6.833,14.605c1.059,2.843,1.939,5.717,2.439,8.715c0.515,3.085,0.722,6.215,0.753,9.34
					c0.032,3.231-0.07,6.465-0.619,9.656c-0.263,1.531-0.632,3.008-1.148,4.474c-0.477,1.355-0.902,2.717-1.28,4.103
					c-0.529,1.007-1.069,2.007-1.63,2.996c-4.011,7.078-8.765,13.747-13.364,20.439c-3.145,4.576-6.243,9.185-9.162,13.909
					c-3.158,5.111-5.793,10.487-8.118,16.023c-1.826,4.348-3.581,8.747-5.183,13.191c3.898-4.09,8.157-7.805,12.476-11.442
					c2.409-2.028,4.86-4.008,7.355-5.931c0.052-0.047,0.102-0.096,0.154-0.143c4.426-4.041,9.057-7.86,13.831-11.481
					c4.68-3.55,9.366-7.043,13.787-10.92c4.417-3.873,8.63-7.982,12.598-12.315c3.364-3.673,6.626-7.486,9.439-11.604
					C295.803,370.101,300.644,359.877,294.596,351.969z"/>
				<path style="fill:#FAA544;" d="M236.131,305.442c2.145,1.701,4.199,3.513,6.104,5.48c3.696,3.817,6.857,8.111,9.535,12.695
					c0.094,0.161,0.183,0.324,0.276,0.486c-0.142-0.905-0.273-1.812-0.37-2.723c-0.205-1.922-0.496-4.645,1.781-5.391
					c1.887-0.618,3.967,0.599,5.456,1.638c4.103,2.861,7.476,6.94,10.438,10.931c4.663,6.282,6.501,14.633,6.231,22.342
					c-0.158,4.506-1.077,8.857-2.364,13.164c-0.437,1.463-0.912,2.914-1.422,4.352c0.04-0.062,0.077-0.12,0.105-0.169
					c0.411-0.724,0.839-1.439,1.264-2.154c0.971-1.63,1.964-3.25,2.888-4.907c0.933-1.672,1.581-3.489,2.369-5.231
					c0.506-1.119,1.043-2.232,1.69-3.278c0.514-0.83,1.11-1.676,1.916-2.248c0.692-0.491,1.628-0.749,2.457-0.883
					c0.808-0.13,1.622-0.126,2.426,0.027c1.606,0.306,3.036,1.208,4.223,2.305c2.807,2.593,4.583,6.249,5.943,9.761
					c0.081,0.208,0.158,0.42,0.237,0.63c0.38-3.573-0.29-7.123-2.719-10.299c-3.323-4.345-8.129-7.182-11.882-11.104
					c-1.697-1.773-3.149-3.738-4.555-5.741c-0.178-0.724-0.372-1.444-0.595-2.157c-1.569-5.002-4.526-9.459-8.007-13.333
					c-3.537-3.936-7.664-7.417-12.046-10.376c-4.575-3.09-9.535-5.659-14.741-7.503c-2.624-0.93-5.314-1.698-8.053-2.205
					c-1.323-0.245-2.655-0.429-3.994-0.561c-0.934-0.092-1.87-0.111-2.806-0.124c-0.011,0.528-0.03,1.055-0.053,1.583
					c0.349,0.13,0.694,0.269,1.035,0.419C231.523,302.015,233.895,303.669,236.131,305.442z"/>
			</g>
		</g>
		<g>
			<path style="fill:#D8D9DA;" d="M151.194,427.36c-0.265-0.458-0.568-0.891-0.925-1.276c-0.806-0.869-2.13-1.484-3.288-0.901
				c-0.816,0.41-1.082,1.36-1.17,2.255c3.507,12.118,2.715,25.781,1.837,38.099c-0.092,1.29-0.201,2.578-0.317,3.865
				c-0.605,3.911-1.242,7.818-1.807,11.734c-0.52,3.602-0.948,7.193-1.076,10.831c-0.128,1.264-0.212,2.531-0.215,3.798
				c-0.002,0.868-0.028,2.006,0.104,3.106c0.093,1.292,0.305,2.555,0.736,3.732c0.728,1.992,4.157,0.494,4.028-1.305
				c-0.083-1.157-0.095-2.046-0.635-3.03c-0.403-3.076,0.038-6.527,0.224-9.426c0.051-0.793,0.118-1.585,0.192-2.376
				c0.165-0.957,0.329-1.914,0.476-2.873c0.592-3.865,1.103-7.743,1.519-11.63c1.172-7.649,2.339-15.308,2.729-23.044
				c0.331-6.573,0.539-14.125-1.924-20.362C151.559,428.243,151.394,427.829,151.194,427.36z"/>
			<path style="fill:#D8D9DA;" d="M151.682,428.555c-0.123-0.312-0.288-0.726-0.489-1.195c-0.209-0.362-0.452-0.7-0.716-1.019
				c0.366,0.81,0.638,1.668,0.856,2.48c0.559,2.077,0.836,4.23,1.009,6.371c0.217,2.685,0.212,5.383,0.15,8.074
				c-0.083,3.548-0.323,7.091-0.686,10.621c-0.738,7.196-1.922,14.333-2.88,21.5c-0.478,3.575-0.897,7.16-1.172,10.757
				c-0.121,1.589-0.242,3.177-0.21,4.771c0.027,1.376,0.103,2.792-0.202,4.146c-0.221,0.978-0.734,2.139-1.678,2.617
				c-0.455,0.23-0.942,0.241-1.409,0.126c0.016,0.353,0.038,0.709,0.081,1.065c0.093,1.292,0.305,2.555,0.736,3.732
				c0.728,1.992,4.157,0.494,4.028-1.305c-0.083-1.157-0.095-2.046-0.635-3.03c-0.403-3.076,0.038-6.527,0.224-9.426
				c0.051-0.793,0.118-1.585,0.192-2.376c0.165-0.957,0.329-1.914,0.476-2.873c0.592-3.865,1.103-7.743,1.519-11.63
				c1.172-7.649,2.339-15.308,2.729-23.044C153.937,442.344,154.145,434.792,151.682,428.555z"/>
			<path style="fill:#D8D9DA;" d="M150.843,497.927c-0.122-0.337-0.376-0.553-0.679-0.667c-0.511-0.9-2.083-0.129-2.677,0.247
				c-0.856,0.542-1.626,1.259-2.273,2.028c-1.032,1.227-2.724,3.509-1.466,5.097c1.541,1.946,4.017-0.598,4.879-1.876
				c0.493-0.731,0.912-1.511,1.32-2.29C150.305,499.784,151.126,498.707,150.843,497.927z"/>
			<path style="fill:#FFFFFF;" d="M151.462,500.757c-0.265-0.464-0.951-0.522-1.409-0.424c-1.904,0.405-4.072-0.902-5.465-2.128
				c-0.521-0.458-1.36,0.221-1.551,0.695c-0.581,1.444,0.567,2.687,1.721,3.412c1.568,0.984,3.279,1.367,5.102,0.979
				c0.703-0.15,1.494-0.728,1.704-1.45C151.688,501.415,151.679,501.137,151.462,500.757z"/>
		</g>
		<g>
			<path style="fill:#D8D9DA;" d="M233.534,427.36c0.265-0.458,0.568-0.891,0.925-1.276c0.806-0.869,2.13-1.484,3.288-0.901
				c0.816,0.41,1.082,1.36,1.17,2.255c-3.507,12.118-2.715,25.781-1.837,38.099c0.092,1.29,0.201,2.578,0.317,3.865
				c0.605,3.911,1.242,7.818,1.807,11.734c0.52,3.602,0.948,7.193,1.076,10.831c0.128,1.264,0.212,2.531,0.215,3.798
				c0.002,0.868,0.028,2.006-0.104,3.106c-0.093,1.292-0.305,2.555-0.736,3.732c-0.728,1.992-4.157,0.494-4.028-1.305
				c0.083-1.157,0.095-2.046,0.635-3.03c0.403-3.076-0.038-6.527-0.224-9.426c-0.051-0.793-0.118-1.585-0.192-2.376
				c-0.165-0.957-0.329-1.914-0.476-2.873c-0.592-3.865-1.103-7.743-1.52-11.63c-1.172-7.649-2.339-15.308-2.729-23.044
				c-0.331-6.573-0.539-14.125,1.924-20.362C233.168,428.243,233.333,427.829,233.534,427.36z"/>
			<path style="fill:#D8D9DA;" d="M233.045,428.555c0.123-0.312,0.288-0.726,0.489-1.195c0.209-0.362,0.452-0.7,0.716-1.019
				c-0.366,0.81-0.638,1.668-0.856,2.48c-0.559,2.077-0.836,4.23-1.009,6.371c-0.217,2.685-0.212,5.383-0.15,8.074
				c0.083,3.548,0.323,7.091,0.685,10.621c0.738,7.196,1.922,14.333,2.881,21.5c0.478,3.575,0.897,7.16,1.172,10.757
				c0.121,1.589,0.242,3.177,0.21,4.771c-0.027,1.376-0.103,2.792,0.202,4.146c0.221,0.978,0.734,2.139,1.678,2.617
				c0.455,0.23,0.942,0.241,1.409,0.126c-0.016,0.353-0.038,0.709-0.081,1.065c-0.093,1.292-0.305,2.555-0.736,3.732
				c-0.728,1.992-4.157,0.494-4.028-1.305c0.083-1.157,0.095-2.046,0.635-3.03c0.403-3.076-0.038-6.527-0.224-9.426
				c-0.051-0.793-0.118-1.585-0.192-2.376c-0.165-0.957-0.329-1.914-0.476-2.873c-0.592-3.865-1.103-7.743-1.52-11.63
				c-1.172-7.649-2.339-15.308-2.729-23.044C230.79,442.344,230.582,434.792,233.045,428.555z"/>
			<path style="fill:#D8D9DA;" d="M234.78,500.467c0.408,0.779,0.826,1.559,1.32,2.29c0.863,1.278,3.339,3.822,4.879,1.876
				c1.258-1.588-0.434-3.871-1.466-5.097c-0.646-0.768-1.417-1.486-2.273-2.028c-0.594-0.376-2.166-1.147-2.677-0.247
				c-0.303,0.114-0.557,0.33-0.679,0.667C233.602,498.707,234.422,499.784,234.78,500.467z"/>
			<path style="fill:#FFFFFF;" d="M233.266,500.757c0.265-0.464,0.951-0.522,1.409-0.424c1.904,0.405,4.072-0.902,5.465-2.128
				c0.521-0.458,1.36,0.221,1.551,0.695c0.581,1.444-0.567,2.687-1.721,3.412c-1.568,0.984-3.28,1.367-5.103,0.979
				c-0.703-0.15-1.494-0.728-1.704-1.45C233.04,501.415,233.049,501.137,233.266,500.757z"/>
		</g>
	</g>
	<g>
		<g>
			<g>
				<path style="fill:#EFB291;" d="M297.33,196.441c-3.129-9.962-14.211-14.911-24.57-11.087
					c-5.925,2.187-10.224,7.628-12.634,12.973c-1.405,3.115-2.201,6.496-2.612,9.854c-2.128,6.026-3.105,12.631-2.658,18.906
					c0.317,4.444,0.976,12.584,5.852,14.968c4.754,2.325,12.228-1.573,16.225-3.903c5.076-2.958,9.248-7.096,12.63-11.686
					C295.932,217.823,300.638,206.972,297.33,196.441z"/>
				<path style="opacity:0.64;fill:#EB936D;" d="M265.719,242.655c0.642-2.243,1.253-4.495,1.826-6.757
					c2.283-9.018,4.029-18.212,4.718-27.493c0.554-7.464,0.445-15.06-0.926-22.44c-5.191,2.478-8.998,7.457-11.21,12.362
					c-1.405,3.115-2.201,6.496-2.612,9.854c-2.128,6.026-3.105,12.631-2.658,18.906c0.317,4.445,0.976,12.584,5.852,14.968
					C262.18,242.775,263.911,242.896,265.719,242.655z"/>
				<path style="opacity:0.67;fill:#EB936D;" d="M292.392,196.785c-1.154-1.883-3.243-2.984-5.409-3.247
					c-4.987-0.604-10.081,2.891-13.208,6.406c-6.96,7.825-8.183,19.1-8.512,29.077c-0.019,0.584,0.845,0.173,0.904-0.234
					c0.237-1.61,0.477-3.245,0.74-4.889c0.205,1.174,0.504,2.326,0.799,3.358c0.581,2.027,1.873,3.821,4.149,3.927
					c5.495,0.256,9.253-6.234,11.882-9.951c0.247-0.349-0.31-0.446-0.516-0.208c-2.457,2.828-4.995,6.531-8.677,7.9
					c-2.963,1.102-4.297-1.015-5.122-3.428c-0.68-1.989-1.751-4.291-1.315-6.413c0.06-0.294-0.057-0.446-0.235-0.498
					c1.017-4.872,2.463-9.656,4.947-13.904c2.157-3.689,5.443-7.06,9.651-8.399c2.866-0.912,6-0.457,7.789,2.133
					c1.67,2.418,1.183,5.624,1.602,8.398c0.05,0.33,0.583,0.009,0.594-0.222C292.608,203.328,294.28,199.865,292.392,196.785z"/>
			</g>
			<g>
				<path style="fill:#EFB291;" d="M84.803,226.466c3.382,4.591,7.555,8.728,12.63,11.686c3.998,2.33,11.471,6.228,16.225,3.903
					c4.876-2.384,5.536-10.524,5.853-14.968c0.447-6.276-0.53-12.88-2.658-18.906c-0.411-3.358-1.207-6.739-2.612-9.854
					c-2.41-5.345-6.709-10.786-12.634-12.973c-10.359-3.824-21.44,1.125-24.57,11.087C73.73,206.972,78.436,217.823,84.803,226.466z
					"/>
				<path style="opacity:0.64;fill:#EB936D;" d="M108.649,242.655c-0.641-2.243-1.253-4.495-1.825-6.757
					c-2.283-9.018-4.029-18.212-4.718-27.493c-0.554-7.464-0.445-15.06,0.926-22.44c5.191,2.478,8.998,7.457,11.21,12.362
					c1.405,3.115,2.201,6.496,2.612,9.854c2.128,6.026,3.105,12.631,2.658,18.906c-0.317,4.445-0.976,12.584-5.853,14.968
					C112.188,242.775,110.457,242.896,108.649,242.655z"/>
				<path style="opacity:0.67;fill:#EB936D;" d="M81.976,196.785c1.154-1.883,3.243-2.984,5.409-3.247
					c4.987-0.604,10.081,2.891,13.208,6.406c6.96,7.825,8.183,19.1,8.512,29.077c0.019,0.584-0.844,0.173-0.904-0.234
					c-0.237-1.61-0.477-3.245-0.74-4.889c-0.205,1.174-0.504,2.326-0.799,3.358c-0.581,2.027-1.873,3.821-4.149,3.927
					c-5.495,0.256-9.253-6.234-11.882-9.951c-0.247-0.349,0.31-0.446,0.517-0.208c2.457,2.828,4.995,6.531,8.677,7.9
					c2.964,1.102,4.297-1.015,5.122-3.428c0.68-1.989,1.751-4.291,1.315-6.413c-0.061-0.294,0.057-0.446,0.235-0.498
					c-1.017-4.872-2.463-9.656-4.947-13.904c-2.157-3.689-5.443-7.06-9.651-8.399c-2.866-0.912-6-0.457-7.789,2.133
					c-1.67,2.418-1.183,5.624-1.602,8.398c-0.05,0.33-0.583,0.009-0.594-0.222C81.76,203.328,80.088,199.865,81.976,196.785z"/>
			</g>
			<path style="fill:#EFB291;" d="M274.717,161.325c1.584-17.813,2.588-35.661,1.294-53.543
				c-0.865-11.958-3.235-24.825-12.193-33.011c-4.092-3.739-9.24-6.17-14.426-8.239c-29.055-11.59-64.822-14.279-95.128-5.777
				c-14.68,4.119-28.325,11.379-40.518,20.372c-4.833,3.564-9.262,7.554-12.425,12.123c-0.644,1.453-1.188,2.949-1.599,4.481
				c-0.526,1.96-0.657,3.991-0.791,6.007c-2.169,32.714,1.013,65.496,5.904,97.847c2.099,13.886,4.77,27.638,6.913,41.556
				c2.147,13.938,4.162,32.288,15.516,42.045c6.283,5.4,13.322,9.866,20.34,14.284c6.845,4.31,13.458,9.174,20.85,12.569
				c9.197,4.224,20.117,5.465,30.126,2.766c10.511-2.835,19.273-9.658,28.292-15.336c7.017-4.418,14.057-8.885,20.34-14.284
				c2.754-2.367,5.094-4.963,6.859-8.122c1.695-3.033,2.887-6.312,3.805-9.643c7.12-25.854,11.622-52.452,14.216-79.094
				C272.966,179.337,273.916,170.336,274.717,161.325z"/>
			<path style="opacity:0.28;fill:#EB936D;" d="M179.678,260.689c-2.319,0.33-4.648,0.617-6.942,1.098
				c-2.285,0.478-4.533,1.113-6.764,1.798c-2.127,0.653-4.255,1.311-6.375,1.983c-0.406,0.129-0.841,0.291-1.281,0.368
				c0.817,0.664,1.877,0.981,2.845,1.353c1.262,0.486,2.336,1.177,3.415,1.985c2.076,1.555,3.948,3.371,6.072,4.863
				c1.076,0.756,2.221,1.424,3.439,1.924c1.379,0.565,2.812,0.883,4.281,1.107c2.575,0.393,5.192,0.503,7.793,0.384
				c5.316-0.243,10.583-1.469,15.502-3.49c4.904-2.015,9.506-4.865,13.378-8.495c3.088-2.896,5.702-6.306,7.541-10.116
				c-4.763,0.404-9.519,0.898-14.267,1.449C198.749,258.011,189.21,259.334,179.678,260.689z"/>
			<path style="opacity:0.64;fill:#EB936D;" d="M181.525,236.883c-3.481-0.484-6.847-1.506-10.08-2.836
				c0.264,1.336,0.905,2.602,1.834,3.708c1.575,1.876,3.727,3.279,6.005,4.211c2.096,0.858,4.474,1.42,6.755,1.136
				c2.876-0.358,5.695-1.421,8.134-2.94c2.145-1.336,4.129-3.149,5.199-5.437c-2.06,0.764-4.171,1.396-6.332,1.821
				C189.244,237.294,185.358,237.416,181.525,236.883z"/>
			<g>
				<g>
					<path style="fill:#FFFFFF;" d="M250.007,192.623c-2.249-3.204-5.111-6.061-8.54-8.057c-3.93-2.287-8.427-3.507-12.973-3.831
						c-0.376-0.027-0.754-0.041-1.132-0.049c-2.276,0.218-4.485,0.637-6.539,1.247c-2.747,0.815-5.178,2.087-7.194,3.715
						c-2.797,2.549-4.778,5.64-6.024,8.986c-1.232,3.309-1.831,6.788-2.182,10.288c2.515,1.457,5.363,2.508,8.238,3.283
						c3.783,1.02,7.695,1.614,11.587,1.93c1.701,0.138,3.406,0.222,5.107,0.252c2.214-0.202,4.408-0.551,6.55-1.049
						c1.125-0.262,2.24-0.571,3.342-0.922c4.543-2.387,8.771-5.387,12.544-8.822c0.051-0.689,0.075-1.38,0.075-2.073
						C252.047,195.818,251.096,194.175,250.007,192.623z"/>
					<g>
						<g>
							<path style="fill:#B65A2C;" d="M242.251,197.355c-1.689,7.503-9.28,12.246-16.953,10.594
								c-7.674-1.652-12.525-9.073-10.836-16.575c1.689-7.503,9.28-12.246,16.953-10.594
								C239.089,182.432,243.941,189.853,242.251,197.355z"/>
							<path style="fill:#552400;" d="M238.703,196.592c-1.258,5.587-6.91,9.118-12.624,7.889c-5.714-1.23-9.326-6.756-8.069-12.342
								c1.258-5.587,6.91-9.118,12.624-7.889C236.348,185.479,239.961,191.005,238.703,196.592z"/>
							<path style="fill:#FFFFFF;" d="M228.282,188.494c-0.498,2.212-2.736,3.611-4.999,3.124c-2.263-0.487-3.694-2.675-3.195-4.888
								c0.498-2.212,2.737-3.611,5-3.124C227.349,184.093,228.78,186.281,228.282,188.494z"/>
							<path style="fill:#FFFFFF;" d="M219.614,192.843c-0.147,0.653-0.808,1.066-1.476,0.923c-0.668-0.144-1.091-0.79-0.943-1.443
								c0.147-0.653,0.808-1.066,1.476-0.922C219.339,191.544,219.761,192.19,219.614,192.843z"/>
						</g>
					</g>
					<path style="fill:#9E7761;" d="M247.326,203.872c-1.651,1.366-3.681,2.196-5.657,3.018c-2.325,0.967-4.702,1.768-7.181,2.26
						c-5.264,1.044-10.565,0.575-15.822-0.275c-2.866-0.464-5.84-0.978-8.583-1.931c-0.051-0.018-0.147,0.07-0.085,0.107
						c2.212,1.327,4.71,1.95,7.205,2.555c2.816,0.682,5.751,1.029,8.64,1.259c2.624,0.209,5.27,0.063,7.861-0.385
						c2.617-0.452,5.284-1.171,7.688-2.293c1.162-0.542,2.338-1.12,3.435-1.781c0.995-0.599,2.121-1.38,2.725-2.382
						C247.645,203.868,247.45,203.77,247.326,203.872z"/>
				</g>
				<path style="fill:#360E00;" d="M250.33,189.615c-0.752-0.897-1.546-1.746-2.353-2.523c-3.404-3.279-7.595-5.741-12.218-6.969
					c-4.679-1.243-9.827-1.269-14.491,0.063c-4.903,1.401-9.383,4.404-12.268,8.556c-0.343,0.494-0.656,1.002-0.95,1.518
					c-1.905,3.633-2.815,7.759-2.386,11.811c0.189-0.698,0.385-1.394,0.598-2.085c0.191-0.857,0.397-1.709,0.651-2.557
					c0.72-2.406,1.532-4.736,2.88-6.885c2.426-3.869,6.22-6.741,10.585-8.243c8.509-2.928,18.189-0.476,24.847,5.234
					c1.97,1.689,3.731,3.661,5.214,5.772c0.723,1.029,1.412,2.1,2.025,3.21C252.059,194.147,251.365,191.799,250.33,189.615z"/>
			</g>
			<g>
				<g>
					<path style="fill:#FFFFFF;" d="M120.345,193.078c2.249-3.204,5.111-6.061,8.539-8.057c3.93-2.287,8.428-3.507,12.973-3.831
						c0.376-0.027,0.754-0.041,1.132-0.049c2.276,0.218,4.485,0.637,6.539,1.247c2.747,0.816,5.178,2.087,7.194,3.715
						c2.797,2.549,4.778,5.64,6.024,8.986c1.232,3.31,1.831,6.788,2.182,10.288c-2.515,1.457-5.363,2.508-8.238,3.283
						c-3.783,1.02-7.695,1.614-11.587,1.93c-1.701,0.138-3.406,0.222-5.107,0.253c-2.214-0.202-4.408-0.551-6.55-1.049
						c-1.125-0.262-2.24-0.571-3.342-0.921c-4.543-2.387-8.771-5.387-12.544-8.822c-0.051-0.689-0.075-1.38-0.075-2.073
						C118.305,196.273,119.255,194.63,120.345,193.078z"/>
					<g>
						<g>
							<ellipse style="fill:#B65A2C;" cx="142.615" cy="194.881" rx="14.163" ry="13.847"/>
							<path style="fill:#552400;" d="M152.914,197.098c-1.252,5.561-6.879,9.077-12.567,7.853
								c-5.688-1.224-9.284-6.725-8.032-12.286c1.252-5.561,6.879-9.077,12.567-7.853
								C150.57,186.036,154.166,191.537,152.914,197.098z"/>
							<path style="fill:#FFFFFF;" d="M142.54,189.036c-0.496,2.202-2.724,3.595-4.977,3.11c-2.253-0.485-3.677-2.663-3.181-4.866
								c0.496-2.202,2.724-3.595,4.977-3.11C141.612,184.656,143.036,186.834,142.54,189.036z"/>
							<path style="fill:#FFFFFF;" d="M133.912,193.367c-0.146,0.65-0.804,1.062-1.469,0.918c-0.665-0.143-1.086-0.786-0.939-1.437
								c0.146-0.65,0.804-1.062,1.469-0.918C133.638,192.073,134.058,192.716,133.912,193.367z"/>
						</g>
					</g>
					<path style="fill:#9E7761;" d="M123.026,204.327c1.651,1.366,3.681,2.196,5.657,3.018c2.325,0.967,4.701,1.768,7.181,2.259
						c5.264,1.044,10.565,0.576,15.822-0.275c2.866-0.464,5.84-0.978,8.583-1.931c0.052-0.018,0.147,0.07,0.085,0.107
						c-2.212,1.326-4.71,1.95-7.205,2.555c-2.816,0.682-5.751,1.029-8.64,1.259c-2.624,0.209-5.27,0.063-7.861-0.385
						c-2.617-0.453-5.284-1.171-7.688-2.293c-1.162-0.542-2.338-1.12-3.435-1.781c-0.995-0.599-2.121-1.38-2.725-2.382
						C122.706,204.323,122.902,204.225,123.026,204.327z"/>
				</g>
				<path style="fill:#360E00;" d="M120.022,190.07c0.753-0.897,1.546-1.746,2.353-2.523c3.404-3.279,7.595-5.741,12.218-6.969
					c4.679-1.243,9.827-1.269,14.491,0.063c4.903,1.4,9.383,4.404,12.268,8.556c0.343,0.494,0.656,1.002,0.95,1.518
					c1.905,3.633,2.815,7.759,2.386,11.811c-0.189-0.698-0.385-1.394-0.598-2.085c-0.191-0.857-0.397-1.709-0.651-2.557
					c-0.72-2.406-1.533-4.736-2.88-6.885c-2.426-3.869-6.22-6.741-10.585-8.243c-8.509-2.928-18.189-0.476-24.847,5.234
					c-1.97,1.689-3.731,3.661-5.214,5.772c-0.723,1.029-1.412,2.1-2.025,3.21C118.292,194.602,118.987,192.254,120.022,190.07z"/>
			</g>
			<path style="fill:#360E00;" d="M262.719,171.588c-1.384-2.966-2.968-5.727-5.167-7.637c-3.581-3.11-7.975-4.358-12.15-5.029
				c-4.281-0.688-8.606-0.727-12.909-0.499c-5.54,0.293-11.074,0.956-16.555,2.081c-4.441,0.911-8.85,2.13-13.181,3.738
				c0.588,2.312,1.377,4.587,2.347,6.667c0.216,0.238,0.435,0.47,0.656,0.693c0.453,0.456,0.922,0.878,1.403,1.27
				c2.522,0.669,5.136,0.803,7.698,0.665c4.271-0.23,8.495-1.199,12.699-2.177c1.925-0.448,3.85-0.905,5.784-1.279
				c2.316-0.449,4.648-0.77,6.974-1.111c2.577-0.378,5.163-0.686,7.757-0.705c2.386-0.018,4.85,0.113,7.171,0.92
				c2.661,0.925,5.08,2.676,7.556,4.237c0.207-0.208,0.354-0.523,0.256-0.791C262.933,172.288,262.825,171.939,262.719,171.588z"/>
			<path style="fill:#360E00;" d="M109.144,171.588c1.384-2.966,2.968-5.727,5.167-7.637c3.581-3.11,7.974-4.358,12.15-5.029
				c4.281-0.688,8.606-0.727,12.909-0.499c5.54,0.293,11.073,0.956,16.555,2.081c4.441,0.911,8.85,2.13,13.181,3.738
				c-0.588,2.312-1.377,4.587-2.347,6.667c-0.216,0.238-0.435,0.47-0.656,0.693c-0.453,0.456-0.922,0.878-1.403,1.27
				c-2.522,0.669-5.136,0.803-7.698,0.665c-4.271-0.23-8.495-1.199-12.699-2.177c-1.925-0.448-3.85-0.905-5.784-1.279
				c-2.315-0.449-4.648-0.77-6.974-1.111c-2.576-0.378-5.163-0.686-7.757-0.705c-2.386-0.018-4.85,0.113-7.171,0.92
				c-2.661,0.925-5.08,2.676-7.556,4.237c-0.207-0.208-0.354-0.523-0.257-0.791C108.929,172.288,109.038,171.939,109.144,171.588z"
				/>
			<path style="opacity:0.65;fill:#92422B;" d="M196.9,237.932c-2.52,1.873-5.399,3.557-8.553,4.126
				c-1.542,0.278-2.999,0.213-4.505-0.208c-1.502-0.42-2.959-0.995-4.335-1.717c-1.419-0.745-2.721-1.663-3.924-2.707
				c-0.582-0.505-1.135-1.033-1.649-1.605c-0.481-0.536-1.051-1.131-1.375-1.777c-0.064-0.127-0.097-0.28-0.177-0.397
				c-0.081-0.117-0.201-0.176-0.252-0.317c-0.115-0.316-0.057-0.785-0.04-1.11c0.04-0.743,0.196-1.468,0.385-2.187
				c0.399-1.513,0.865-3.014,1.3-4.518c1.213-4.193,2.517-8.357,3.618-12.58c0.037-0.141-0.171-0.104-0.207-0.004
				c-1.394,3.978-2.883,7.924-4.207,11.925c-0.549,1.66-1.115,3.32-1.631,4.99c-0.235,0.762-0.429,1.535-0.563,2.32
				c-0.06,0.354-0.102,0.71-0.111,1.069c-0.005,0.184,0.016,0.369,0.011,0.552c-0.006,0.221-0.11,0.426-0.118,0.644
				c-0.029,0.766,0.487,1.51,0.932,2.088c0.51,0.663,1.069,1.289,1.667,1.877c1.233,1.213,2.633,2.247,4.156,3.089
				c3.027,1.674,6.49,2.484,9.957,1.976c3.721-0.545,7.473-2.428,9.991-5.177C197.53,238,197.198,237.71,196.9,237.932z"/>
			<g>
				<path style="opacity:0.65;fill:#92422B;" d="M196.9,276.657c-3.315,0.31-6.679,0.52-10.017,0.509
					c-1.251,0.076-2.504,0.152-3.757,0.142c-0.834-0.007-1.668-0.055-2.476-0.205c-1.429,0.053-2.845,0.214-4.204,0.597
					c0.05,0.069,0.12,0.131,0.22,0.181c3.362,1.701,7.311,1.195,10.946,1.017c2.008-0.098,4.005-0.238,5.987-0.577
					c1.863-0.318,3.822-0.837,5.406-1.893C198.304,276.513,197.602,276.591,196.9,276.657z"/>
				<path style="opacity:0.65;fill:#92422B;" d="M223.984,255.137c-0.124-0.483-0.317-0.941-0.588-1.304
					c-0.151-0.203-0.304-0.398-0.483-0.555c-0.066-0.058-0.134-0.11-0.204-0.158c-0.083-0.056-0.167-0.121-0.259-0.145
					c-0.098-0.026-0.198-0.041-0.298-0.06c-0.068,0.009-0.136,0.018-0.204,0.027c-0.113,0.028-0.217,0.084-0.313,0.168
					c-0.16,0.12-0.327,0.294-0.417,0.513c-0.078,0.19-0.146,0.388-0.214,0.585c-0.042,0.12-0.047,0.32-0.009,0.471
					c-0.018,0.125-0.026,0.251-0.031,0.378c-0.018,0.033-0.037,0.064-0.052,0.098c-0.015,0.035-0.025,0.072-0.038,0.108
					c-3.147,2.513-6.987,3.376-10.526,4.335c-4.424,1.199-8.808,2.559-13.265,3.543c-9.659,2.133-19.487,3.271-29.28,3.136
					c-1.112-0.015-2.226-0.121-3.337-0.105c-0.697,0.01-1.393,0.064-2.09,0.056c-0.548-0.006-1.111-0.03-1.653-0.171
					c-0.464-0.795-1.105-1.86-1.882-2.043c-0.762-0.179-1.892,0.7-1.673,1.899c0.707,3.886,5.203,2.318,7.242,2.171
					c5.162-0.372,10.31-0.724,15.462-1.313c5.013-0.574,10.023-1.276,15.015-2.117c2.47-0.416,4.931-0.9,7.381-1.495
					c2.289-0.555,4.555-1.256,6.838-1.849c4.109-1.067,8.508-1.882,12.181-4.727c0.053,0.025,0.105,0.053,0.163,0.065
					c0.183,0.038,0.365,0.071,0.55,0.091c0.235,0.025,0.471,0.037,0.705,0.08c-0.055-0.011-0.109-0.021-0.164-0.032
					c0.153,0.032,0.298,0.052,0.452,0.01c0.223-0.061,0.424-0.214,0.594-0.408c0.135-0.154,0.24-0.324,0.317-0.538
					C223.979,255.644,224.043,255.365,223.984,255.137z"/>
			</g>
			<path style="fill:#410400;" d="M286.372,105.096c-0.708-8.136-3.63-16.392-8.586-22.997c-2.424-3.23-5.45-6.117-9.091-8.006
				c-3.898-2.023-8.293-2.92-12.69-2.908c-9.002,0.023-17.995,3.421-25.303,8.436c-3.107,2.132-5.959,4.665-8.442,7.471
				c-2.495,2.819-5.122,6.274-5.577,10.091c-0.097,0.815-0.07,1.646,0.078,2.453c0.115,0.627,1.057,0.331,1.33,0.024
				c1.246-1.405,3.135-2.022,4.936-2.428c1.919-0.433,3.882-0.627,5.83-0.89c0.391-0.053,0.663-0.382,0.725-0.692
				c1.96-0.128,3.929-0.157,5.889-0.173c5.304-0.043,10.865-0.019,15.869,1.919c2.38,0.922,4.568,2.344,6.59,3.865
				c2.033,1.53,3.913,3.249,5.645,5.099c3.407,3.639,6.352,7.756,8.726,12.107c0.771,1.414,1.444,2.876,2.043,4.367
				c0.532,1.326,1.072,2.681,1.435,4.062c0.557,2.119,0.675,4.7,2.084,6.496c0.348,0.443,0.987,0.069,1.241-0.266
				c1.355-1.784,2.205-3.91,2.938-5.996c0.763-2.171,1.512-4.355,2.232-6.539C285.917,115.612,286.827,110.329,286.372,105.096z"/>
			<path style="fill:#80492E;" d="M312.881,90.768c-1.192-4.399-2.736-8.73-4.949-12.744c-2.195-3.981-5.09-7.55-8.612-10.488
				c-4.146-3.459-9.078-5.976-14.183-7.791c-2.447-0.87-4.956-1.469-7.466-2.129c-2.489-0.654-4.996-1.332-7.569-1.573
				c-1.113-0.104-2.229-0.151-3.336,0.032c-0.472,0.078-1.005,0.539-1.022,1.029c-0.217,6.161-1.844,12.158-2.961,18.197
				c-0.541,2.926-0.994,5.851-1.801,8.724c-0.402,1.432-0.871,2.846-1.428,4.228c-0.415,1.031-0.905,2.031-1.319,3.063
				c-0.429,1.068-0.823,2.156-1.32,3.195c-0.359,0.751-0.842,1.755-1.578,2.267c-0.071,0.006-0.142,0.009-0.214,0.015
				c-0.32,0.026-0.653,0.201-0.758,0.519c-0.091,0.277,0.079,0.539,0.387,0.539c3.301,0.007,6.653,0.247,9.761,1.415
				c2.84,1.067,5.342,2.873,7.029,5.362c3.057,4.509,3.668,10.336,3.657,15.615c-0.006,2.594-0.126,5.18-0.606,7.737
				c-0.492,2.623-1.316,5.192-2.394,7.641c-2.165,4.92-5.466,9.422-9.736,12.802c-4.198,3.323-9.494,5.697-14.951,5.926
				c-0.711,0.03-1.423,0.015-2.134,0.004c-0.424-0.007-1.38,0.658-0.913,1.135c4.727,4.831,12.204,6.347,18.77,6.734
				c1.34,0.079,2.688,0.108,4.037,0.084c0.19,1.431,0.319,2.871,0.37,4.329c0.116,3.335,0.096,6.67,0.19,10.005
				c0.103,3.682,0.498,7.355,0.743,11.03c0.26,3.9,0.469,7.812,0.389,11.722c-0.093,4.526-0.292,9.048-0.355,13.576
				c-0.006,0.428,0.388,0.606,0.777,0.536c0.46-0.083,0.782-0.449,0.872-0.877c1.979-9.49,4.488-19.045,8.43-27.953
				c1.942-4.389,4.01-8.766,6.327-12.978c2.202-4.003,4.775-7.823,7.274-11.654c0.749-1.148,1.509-2.29,2.285-3.421
				c1.798-1.26,3.509-2.639,5.097-4.144c7.867-7.454,13.35-17.568,15.567-28.033C317.603,113.267,315.836,101.676,312.881,90.768z"
				/>
			<path style="opacity:0.55;fill:#80492E;" d="M253.055,153.823c3.29-0.816,6.527-1.812,9.756-2.829
				c4.446-1.4,8.543-3.758,11.997-6.831c1.827-1.625,3.476-3.445,4.884-5.43c1.298-1.831,2.365-3.81,3.306-5.837
				c1.685-3.628,2.785-7.511,3.372-11.45c0.601-4.028,0.651-8.14,0.203-12.186c-0.449-4.059-1.423-8.07-2.91-11.885
				c-1.468-3.764-3.462-7.347-5.973-10.545c-2.508-3.194-5.55-5.983-9.01-8.17c-0.174-0.11-0.261-0.399-0.072-0.547
				c2.16-1.687,4.712-2.83,7.504-2.922c4.693-0.155,8.972,2.5,12.295,5.502c2.709,2.447,5.065,5.327,7.005,8.42
				c-0.499-1.493-1.062-2.965-1.719-4.398c-1.863-4.068-4.403-7.896-7.81-10.89c-3.504-3.079-7.829-5.032-12.488-5.695
				c-0.39-0.056-0.282-0.563,0-0.672c0.587-0.227,1.18-0.441,1.779-0.638c4.373-1.44,9.051-2.003,13.64-1.462
				c4.259,0.502,8.367,1.911,12.049,4.058c0.456,0.266,0.905,0.543,1.347,0.83c-0.913-0.951-1.873-1.859-2.892-2.71
				c-4.146-3.459-9.078-5.976-14.183-7.791c-2.447-0.87-4.956-1.469-7.466-2.129c-2.489-0.654-4.996-1.332-7.569-1.573
				c-1.113-0.104-2.229-0.151-3.336,0.032c-0.472,0.078-1.005,0.539-1.022,1.029c-0.217,6.161-1.844,12.158-2.961,18.197
				c-0.541,2.926-0.994,5.85-1.801,8.724c-0.402,1.432-0.871,2.846-1.428,4.228c-0.415,1.031-0.905,2.031-1.319,3.062
				c-0.429,1.068-0.823,2.156-1.32,3.196c-0.359,0.751-0.842,1.755-1.578,2.267c-0.071,0.006-0.142,0.009-0.214,0.015
				c-0.32,0.026-0.653,0.201-0.758,0.519c-0.091,0.277,0.079,0.539,0.387,0.539c3.301,0.007,6.653,0.247,9.761,1.415
				c2.84,1.067,5.342,2.873,7.029,5.362c3.057,4.509,3.668,10.336,3.657,15.615c-0.006,2.594-0.126,5.18-0.606,7.737
				c-0.492,2.623-1.316,5.192-2.394,7.641c-2.165,4.92-5.466,9.422-9.736,12.802c-4.198,3.323-9.494,5.697-14.951,5.926
				c-0.711,0.03-1.423,0.015-2.134,0.004c-0.411-0.006-1.321,0.62-0.947,1.093C247.342,155.126,250.225,154.525,253.055,153.823z"/>
			<path style="fill:#80492E;" d="M270.367,59.026c-0.39-3.27-1.272-6.476-2.585-9.507c-2.708-6.251-7.096-11.699-12.322-16.133
				c-5.496-4.664-11.956-8.137-18.721-10.703c-3.41-1.294-6.919-2.396-10.478-3.226c-3.958-0.924-8.016-1.42-12.076-1.638
				c-8.123-0.437-16.249,0.221-24.352,0.722c-4.635,0.286-9.296,0.575-13.943,0.566c-4.285-0.008-8.728-0.217-12.843-1.48
				c-3.369-1.034-6.765-3.073-7.533-6.685c-0.206-0.97-0.21-1.946-0.1-2.929c0.065-0.579-0.829-0.253-0.952,0.093
				c-0.843,2.372-1.619,4.758-1.854,7.274c-0.14,1.498-0.093,3.085,0.338,4.547c-1.308-0.037-2.616-0.059-3.925-0.069
				c-19.802-0.158-38.569,6.509-52.055,21.187c-6.177,6.723-10.365,15.068-17.45,21c-3.14,2.629-6.606,4.979-10.319,6.764
				c-3.749,1.803-7.909,3.124-12.134,2.865c-0.988-0.061-1.946-0.238-2.911-0.447c-0.618-0.134-1.845,0.793-1.06,1.33
				c2.399,1.641,4.89,3.22,7.759,3.946c0.821,0.208,1.649,0.327,2.477,0.379c-0.663,0.593-1.301,1.197-1.912,1.792
				c-3.658,3.558-6.726,7.661-8.859,12.266c-1.226,2.646-2.105,5.438-2.526,8.316c-0.11,0.751,0.947,0.691,1.344,0.395
				c2.215-1.648,4.263-3.483,6.292-5.34c-2.025,2.894-3.682,6.024-4.843,9.397c-2.142,6.224-2.518,12.876-1.609,19.356
				c0.094,0.674,0.203,1.345,0.324,2.013c0.247,1.92,0.611,3.822,1.095,5.69c6.295,24.306,32.409,36.616,43.704,58.184
				c2.435,4.649,4.044,9.646,6.292,14.376c0.536,1.129,2.577,5.288,3.197,6.374c0.461,0.809,2.632-46.517,3.207-49.834
				c0.53-3.06,1.159-6.226,2.4-9.115c3.051,2.759,6.753,4.807,10.799,6.127c0.5,0.163,1.591-0.592,1.099-1.12
				c-3.213-3.447-7.298-9.655-2.957-13.774c1.987-1.886,4.852-2.738,7.51-3.209c2.935-0.521,5.939-0.585,8.914-0.489
				c14.417,0.463,28.411,4.501,42.803,5.17c13.501,0.628,27.684-2.187,38.335-10.765c10.792-8.692,14.756-22.057,20.087-34.145
				c1.359-3.081,2.819-6.154,4.603-9.025c1.452-2.337,3.566-4.655,6.235-5.656c2.735-1.025,5.806,0.241,7.3,2.648
				c1.308,2.107,1.452,4.957,0.792,7.294c-0.179,0.634-0.417,1.256-0.737,1.832c-0.323,0.281-0.651,0.556-0.98,0.829
				c-0.148-0.139-0.505-0.058-0.619,0.159c-0.169,0.319-0.8,0.877-0.04,1.063c0.31,0.076,0.653-0.185,0.909-0.322
				c0.334-0.18,0.656-0.358,0.968-0.574c1.266-0.872,2.419-1.88,3.478-2.984c2.11-2.2,3.831-4.723,5.206-7.418
				c2.815-5.519,4.371-11.577,5.103-17.683C270.631,65.483,270.752,62.259,270.367,59.026z"/>
		</g>
		<path style="fill:#483C36;" d="M120.768,69.861c-4.024,3.024-9.185,4.209-14.198,3.769c-4.964-0.436-9.806-2.414-13.521-5.673
			c-2.044-1.793-3.667-4.034-4.649-6.544c-0.192-0.49-0.983-0.193-1.08,0.225c-0.863,3.708-1.308,7.635-0.167,11.339
			c1.007,3.269,3.276,5.9,6.493,7.266c2.23,0.947,4.647,1.19,7.053,0.999c0.365-0.029,0.797-0.663,0.242-0.691
			c-3.642-0.185-7.533-0.944-10.135-3.645c-2.303-2.39-3.206-5.694-3.257-8.912c-0.024-1.532,0.119-3.067,0.415-4.572
			c1.978,4.061,5.545,7.164,9.726,9.052c4.767,2.152,10.331,2.752,15.448,1.551c2.886-0.677,5.589-1.967,7.872-3.826
			C121.283,69.979,121.06,69.642,120.768,69.861z"/>
		<path style="fill:#483C36;" d="M78.554,156.084c-6.431-4.276-10.104-11.601-11.888-18.806c-1.946-7.858-1.907-16.395,1.225-23.962
			c1.054-2.546,2.399-5.06,4.162-7.21c1.734-2.114,3.876-3.887,5.409-6.161c0.1-0.149-0.133-0.164-0.211-0.06
			c-1.588,2.105-3.715,3.731-5.486,5.677c-1.693,1.86-3.08,4.024-4.206,6.253c-2.026,4.01-3.111,8.552-3.366,13.008
			c-0.219,3.833,0.127,7.711,0.912,11.47c0.821,3.933,2.14,7.839,4.134,11.359c2.089,3.686,4.912,7.004,8.772,8.99
			C78.323,156.801,78.911,156.322,78.554,156.084z"/>
		<path style="fill:#483C36;" d="M101.728,182.327c-2.276-2.182-4.596-4.32-6.81-6.564c-2.375-2.407-4.625-4.939-6.715-7.587
			c-4.166-5.277-7.666-11.121-9.698-17.512c-1.096-3.445-1.677-7.036-1.55-10.648c0.009-0.265-0.419-0.118-0.434,0.09
			c-0.488,6.601,1.328,13.081,4.328,18.95c3.123,6.11,7.377,11.637,12.153,16.6c2.52,2.618,5.188,5.121,8.146,7.264
			C101.471,183.155,102.046,182.631,101.728,182.327z"/>
		<path style="fill:#483C36;" d="M312.747,117.398c-1.972-0.52-3.884-1.413-5.474-2.672c-1.645-1.303-2.987-2.937-4.1-4.689
			c-2.49-3.919-4.061-8.317-5.506-12.685c-1.343-4.059-2.479-8.25-4.348-12.118c-2.248-4.654-6.101-8.654-11.087-10.493
			c-5.019-1.852-10.579-1.309-15.182,1.354c-0.645,0.373-1.266,0.782-1.868,1.216c-0.243,0.175-0.133,0.55,0.174,0.362
			c4.523-2.759,10.134-3.841,15.276-2.205c5.109,1.625,9.101,5.508,11.416,10.181c1.862,3.759,2.968,7.862,4.251,11.832
			c1.399,4.331,2.879,8.722,5.233,12.662c1.503,2.517,3.543,4.991,6.125,6.555c-2.442-0.291-4.828-0.823-7.12-1.843
			c-3.256-1.449-6.188-3.701-8.121-6.67c-1.165-1.789-1.932-3.777-2.346-5.856c-0.032-0.16-0.271-0.024-0.252,0.103
			c0.573,3.686,2.26,7.124,4.955,9.776c2.643,2.599,6.078,4.268,9.694,5.141c2.023,0.489,4.077,0.74,6.154,0.632
			c0.035,0.009,0.069,0.022,0.104,0.031c0.509,0.132,1.028,0.224,1.549,0.294C312.68,118.36,313.262,117.534,312.747,117.398z"/>
		<path style="fill:#483C36;" d="M295.43,126.54c-0.031-0.1-0.198-0.01-0.18,0.077c1.271,6.237,0.135,12.671-3.31,18.075
			c-3.299,5.174-8.284,9.251-13.551,12.418c-3.034,1.824-6.158,3.365-9.437,4.726c-0.182,0.075-0.23,0.422,0.03,0.34
			c6.191-1.936,12.175-5.06,17.092-9.229c4.781-4.054,8.784-9.355,10.045-15.52C296.866,133.772,296.549,130.091,295.43,126.54z"/>
		<path style="opacity:0.55;fill:#80492E;" d="M267.782,49.519c-2.056-4.745-5.081-9.026-8.704-12.753
			c-2.898-1.4-5.936-2.531-9.004-3.508c-5.038-1.604-10.181-2.82-15.456-3.385c-11.458-1.228-22.75,0.784-33.23,5.276
			c2.852-0.384,5.698-0.809,8.555-1.155c7.922-0.958,16.162-1.626,24.064-0.166c6.942,1.283,13.457,4.775,15.436,11.838
			c0.073,0.259-0.176,0.494-0.438,0.429c-7.701-1.936-15.692-0.21-22.816,2.897c-6.431,2.804-12.351,6.688-17.834,10.982
			c-4.529,3.547-8.758,7.445-13.185,11.111c-4.783,3.961-9.769,7.793-15.267,10.769c-1.016,0.55-2.066,1.077-3.14,1.563
			c16.741-4.377,30.705-15.53,46.951-21.267c3.189-1.126,6.518-2.093,9.913-2.349c2.517-0.19,5.414,0.031,7.342,1.815
			c2.456,2.273,2.179,6.052,1.726,9.028c-0.764,5.024-2.932,9.789-5.535,14.147c-2.671,4.472-5.893,8.63-9.388,12.515
			c-3.433,3.816-7.128,7.46-11.181,10.647c-8.326,6.546-18.098,11.176-28.479,13.624c-9.694,2.286-19.507,2.479-29.399,1.668
			c-6.209-0.509-12.415-1.044-18.652-1.074c-10.903-0.052-30.595,0.986-30.469,15.654c0.004,0.415-0.567,0.445-0.7,0.092
			c-1.473-3.914-1.761-8.144-1.234-12.263c1.014-7.923,4.728-15.476,9.725-21.726c4.072-5.092,9.328-9.706,15.515-12.185
			c-4.941,0.754-9.715,2.427-14.058,4.868c-9.334,5.247-16.694,14.043-19.119,24.397c-1.194,5.099-0.821,10.203,0.612,15.221
			c1.397,4.894,3.716,9.937,7.61,13.423c0.105,0.094,0.147,0.306,0.056,0.422c-6.859,8.687-4.923,20.719-4.583,30.916
			c0.009,0.263-0.31,0.435-0.536,0.301c-4.292-2.55-8.154-5.744-11.454-9.446c-11.268-12.641-15.962-30.501-12.987-46.95
			c-2.924,2.843-4.207,6.981-4.658,10.915c-0.488,4.257-0.148,8.708,1.218,12.789c0.136,0.407-0.429,0.56-0.651,0.268
			c-2.412-3.157-4.648-6.479-5.988-10.221c-2.462-6.876-1.563-14.352,1.175-21.008c2.574-6.257,6.483-11.874,9.331-18.006
			c-3.091,1.562-5.823,3.701-8.115,6.27c-8.796,9.858-11.754,25.722-6.285,37.784c0.136,0.3-0.155,0.667-0.488,0.477
			c-3.128-1.795-5.622-4.426-7.533-7.419c-2.644-4.14-4.273-8.859-5.23-13.678c0.094,0.673,0.202,1.342,0.323,2.009
			c0.247,1.92,0.611,3.822,1.095,5.69c6.295,24.306,32.409,36.616,43.704,58.184c2.435,4.649,4.044,9.646,6.292,14.376
			c0.536,1.129,2.577,5.288,3.197,6.374c0.461,0.809,2.632-46.517,3.207-49.834c0.53-3.06,1.159-6.226,2.4-9.115
			c3.051,2.759,6.753,4.807,10.799,6.127c0.5,0.163,1.591-0.592,1.099-1.12c-3.213-3.447-7.298-9.655-2.957-13.774
			c1.987-1.886,4.852-2.738,7.51-3.209c2.935-0.521,5.939-0.585,8.914-0.489c14.417,0.463,28.411,4.501,42.803,5.17
			c13.501,0.628,27.684-2.187,38.335-10.765c10.792-8.692,14.756-22.057,20.087-34.145c1.359-3.081,2.819-6.154,4.603-9.025
			c1.452-2.336,3.566-4.655,6.235-5.656c2.735-1.025,5.805,0.241,7.3,2.648c1.308,2.107,1.452,4.957,0.792,7.294
			c-0.179,0.634-0.417,1.256-0.737,1.832c-0.323,0.281-0.651,0.556-0.98,0.829c-0.148-0.139-0.505-0.058-0.619,0.159
			c-0.169,0.319-0.8,0.877-0.04,1.063c0.31,0.076,0.653-0.185,0.909-0.322c0.334-0.18,0.656-0.358,0.968-0.574
			c1.266-0.872,2.419-1.88,3.478-2.984c2.11-2.2,3.831-4.723,5.206-7.418c2.815-5.519,4.371-11.577,5.103-17.683
			c0.387-3.227,0.508-6.45,0.122-9.684C269.977,55.755,269.095,52.55,267.782,49.519z"/>
		<path style="fill:#483C36;" d="M252.914,54.415c-3.971-2.72-8.642-4.107-13.486-4.087c-4.913,0.02-9.736,1.334-14.255,3.14
			c-9.009,3.6-17.074,9.059-24.981,14.522c-7.851,5.425-15.791,10.94-24.787,14.42c-4.415,1.708-9.158,3.071-13.926,3.274
			c-2.39,0.102-4.834-0.101-7.098-0.894c-2.148-0.752-3.777-2.187-5.182-3.904c-0.673-0.822-1.285-1.689-1.931-2.53
			c-0.298-0.387-1.054,0.148-0.822,0.563c1.312,2.339,2.1,4.894,3.232,7.312c1.172,2.504,2.828,4.565,5.078,6.231
			c4.574,3.388,10.231,4.965,15.94,4.796c3.281-0.097,6.473-0.766,9.569-1.81c0.435-0.146,0.507-0.929-0.068-0.762
			c-5.313,1.539-11.062,2.17-16.488,0.812c-2.702-0.676-5.255-1.819-7.544-3.377c-2.303-1.568-4.094-3.49-5.346-5.951
			c-0.621-1.222-1.134-2.489-1.655-3.753c0.401,0.461,0.822,0.906,1.282,1.316c1.666,1.487,3.782,2.321,5.979,2.731
			c4.609,0.861,9.477,0.003,13.93-1.234c9.271-2.576,17.504-7.444,25.376-12.76c7.885-5.325,15.549-10.97,24.101-15.263
			c8.472-4.253,18.471-7.596,27.794-3.913c4.21,1.662,7.82,4.644,10.58,8.133c2.687,3.397,4.554,7.589,4.426,11.945
			c-0.033,1.114-0.198,2.219-0.479,3.299c-0.051,0.194,0.239,0.146,0.286,0.005C265.283,68.135,259.982,59.256,252.914,54.415z"/>
		<path style="fill:#483C36;" d="M254.921,43.436c-0.701-1.275-1.645-2.426-2.706-3.431c-2.294-2.173-5.079-3.827-7.942-5.182
			c-7.243-3.43-15.255-4.861-23.269-4.888c-9.215-0.031-18.315,1.727-27.348,3.319c-4.607,0.812-9.188,1.728-13.771,2.656
			c-4.31,0.873-8.677,1.637-13.088,1.735c-6.07,0.134-14.057-1.096-16.11-7.69c-0.245-0.786-0.503-1.577-0.561-2.4
			c-0.022-0.318-0.467-0.167-0.538,0.052c-0.859,2.663-1.491,5.521-0.968,8.311c0.532,2.842,2.255,5.312,4.466,7.172
			c0.202,0.17,0.685-0.203,0.49-0.411c-1.904-2.033-3.697-4.208-4.298-6.967c-0.478-2.193-0.188-4.422,0.383-6.568
			c0.025,0.296,0.059,0.591,0.123,0.88c0.159,0.716,0.398,1.412,0.709,2.078c0.583,1.25,1.431,2.348,2.486,3.253
			c2.273,1.949,5.27,2.791,8.209,3.172c8.825,1.144,17.709-1.456,26.289-3.106c4.709-0.905,9.436-1.721,14.165-2.521
			c4.537-0.767,9.077-1.476,13.676-1.777c8.623-0.565,17.394,0.215,25.487,3.324c5.575,2.141,11.703,5.428,14.223,11.032
			c0.29,0.646,0.46,1.312,0.555,2.01c0.032,0.234,0.479,0.05,0.463-0.147C255.93,45.97,255.589,44.651,254.921,43.436z"/>
		<path style="fill:#483C36;" d="M134.795,92.196c-1.426,0.242-2.856,0.468-4.263,0.803c-1.424,0.339-2.821,0.792-4.203,1.266
			c-2.831,0.972-5.581,2.144-8.215,3.551c-5.213,2.785-9.98,6.426-13.55,11.103c-3.492,4.575-5.717,10.2-5.927,15.93
			c-0.205,5.583,1.279,11.224,3.882,16.175c2.558,4.866,6.425,9.36,11.613,11.642c0.622,0.274,1.259,0.513,1.906,0.723
			c0.382,0.124,0.917-0.502,0.442-0.693c-5.03-2.03-9.039-6.072-11.777-10.591c-2.827-4.665-4.543-10.116-4.723-15.545
			c-0.182-5.499,1.492-10.935,4.515-15.558c3.074-4.701,7.473-8.423,12.332-11.285c4.962-2.923,10.38-4.793,15.855-6.557
			c0.692-0.223,1.387-0.43,2.09-0.618C134.975,92.485,135.084,92.147,134.795,92.196z"/>
	</g>
</g>
</svg>
